<svg width="50" height="50" viewBox="0 0 50 50" fill="none" xmlns="http://www.w3.org/2000/svg">
<path d="M29.833 18.9668C31.6003 18.9668 33.0332 20.3997 33.0332 22.167V28.167C33.0332 29.9343 31.6003 31.3672 29.833 31.3672H20.5C18.7327 31.3672 17.2998 29.9343 17.2998 28.167V22.167C17.2998 20.3997 18.7327 18.9668 20.5 18.9668H29.833ZM20.5 20.167C19.3954 20.167 18.5 21.0624 18.5 22.167V28.167L18.5107 28.3711C18.6062 29.3126 19.3543 30.0608 20.2959 30.1562L20.5 30.167H29.833C30.9376 30.167 31.833 29.2716 31.833 28.167V22.167C31.833 21.0624 30.9376 20.167 29.833 20.167H20.5ZM25.4082 20.7334C25.6955 20.7334 25.9059 20.9823 25.9062 21.2744V21.6182C26.113 21.6563 26.3093 21.7161 26.4873 21.8066L26.4883 21.8076C26.7864 21.9641 27.0391 22.1774 27.2168 22.4492L27.2822 22.5537C27.4255 22.8031 27.4971 23.0856 27.5117 23.3848L27.5127 23.3896H27.5117C27.5117 23.3992 27.5127 23.4258 27.5049 23.4521C27.4969 23.4787 27.4809 23.4989 27.4619 23.5166L27.4629 23.5176C27.4618 23.5188 27.4592 23.5193 27.458 23.5205C27.4544 23.5237 27.4521 23.5284 27.4482 23.5312L27.4463 23.5293C27.4352 23.5396 27.4244 23.5525 27.4082 23.5605C27.3838 23.5726 27.3579 23.5781 27.333 23.5781H26.6807C26.5758 23.5779 26.5161 23.4887 26.5029 23.416L26.502 23.4092C26.4729 23.1517 26.3662 22.966 26.1846 22.834V22.833C26.0665 22.7514 25.9354 22.6881 25.7852 22.6562L25.7734 22.6543V22.6533C25.6884 22.624 25.552 22.6171 25.4053 22.626C25.2655 22.6344 25.1289 22.6548 25.0449 22.6719C24.9899 22.6872 24.9337 22.7112 24.8711 22.7373L24.7627 22.7969C24.6606 22.8624 24.5772 22.9449 24.5137 23.0391C24.4313 23.1611 24.3956 23.2909 24.3955 23.46C24.3955 23.595 24.4241 23.7003 24.4766 23.7881C24.5317 23.8801 24.6085 23.9589 24.7012 24.0225C24.798 24.0887 24.9128 24.148 25.0225 24.2002H25.0215L25.0527 24.2139L25.4688 24.3545C25.5473 24.3793 25.6205 24.4017 25.6807 24.418L25.8164 24.4473L25.8242 24.4482L25.833 24.4502L25.8965 24.4678L25.8994 24.4688C26.0459 24.514 26.2155 24.5777 26.3984 24.6484C26.5942 24.7241 26.7788 24.8452 26.9561 24.9795C27.097 25.0863 27.2176 25.2196 27.3184 25.3691L27.4121 25.5244L27.4131 25.5254C27.5329 25.7537 27.5996 26.0355 27.5996 26.3496C27.5996 26.7203 27.5082 27.0559 27.3408 27.3535L27.3389 27.3545C27.1628 27.6527 26.9109 27.8948 26.585 28.0625L26.5859 28.0635C26.3892 28.1727 26.161 28.2405 25.9219 28.2803V28.7246C25.9218 29.017 25.7113 29.2666 25.4238 29.2666H25.3799L25.3662 29.252C25.1051 29.2246 24.919 28.9907 24.9189 28.7158V28.2715C24.698 28.2335 24.4931 28.1744 24.3008 28.084L24.2979 28.083V28.082C23.9808 27.9242 23.7286 27.7007 23.5439 27.4209C23.3579 27.1388 23.2582 26.8026 23.2334 26.4355L23.2324 26.4297H23.2334C23.2334 26.4132 23.2304 26.3443 23.2842 26.293L23.2822 26.292C23.286 26.2878 23.2908 26.284 23.2949 26.2803L23.2969 26.2783H23.2979C23.3313 26.2489 23.3739 26.2326 23.4121 26.2324H24.1045C24.1842 26.2325 24.262 26.2908 24.2803 26.374L24.2842 26.4111C24.2997 26.6036 24.3576 26.7583 24.4531 26.8799C24.5273 26.9741 24.6223 27.0512 24.7314 27.1074L24.8457 27.1572L24.8506 27.1582V27.1592L25.0352 27.2158L25.041 27.2178C25.196 27.2673 25.3739 27.2994 25.7178 27.2354L25.6562 27.1016L25.7012 27.0801L25.7471 27.0596L25.8193 27.2158C25.8874 27.1991 25.9579 27.1725 26.0273 27.1416C26.2032 27.06 26.3408 26.9473 26.4414 26.8115C26.531 26.68 26.5811 26.5155 26.5811 26.332C26.581 26.1655 26.5381 26.0462 26.4658 25.9512V25.9502C26.3814 25.8499 26.2673 25.7618 26.1211 25.6885L25.9512 25.6123C25.8942 25.588 25.8356 25.5639 25.7754 25.543V25.5439L24.9805 25.2871V25.2861L24.9209 25.2705L24.917 25.2695C24.5177 25.1427 24.1818 24.9657 23.9189 24.7363L23.8105 24.6348C23.519 24.3392 23.376 23.9498 23.376 23.4863C23.3761 23.1074 23.4678 22.7691 23.6631 22.4766C23.8485 22.1869 24.1096 21.9631 24.4189 21.8145C24.571 21.7344 24.7407 21.6768 24.9111 21.6387V21.2744C24.9115 20.9824 25.1212 20.7337 25.4082 20.7334ZM30.167 26.2334C30.4981 26.2335 30.7663 26.5019 30.7666 26.833V28.5C30.7666 28.8313 30.4983 29.0995 30.167 29.0996H28.5C28.1688 29.0994 27.9004 28.8313 27.9004 28.5C27.9005 28.1688 28.1688 27.9006 28.5 27.9004H29.5674V26.833C29.5676 26.5019 29.8358 26.2334 30.167 26.2334ZM25.0186 28.7158C25.0186 28.7466 25.0212 28.7768 25.0264 28.8057C25.0313 28.833 25.0387 28.8596 25.0479 28.8848C25.0291 28.833 25.0195 28.7758 25.0195 28.7158V28.1885L25.0186 28.1875V28.7158ZM23.6963 27.4639C23.7048 27.4751 23.7139 27.486 23.7227 27.4971C23.6893 27.455 23.6577 27.4113 23.6279 27.3662H23.627C23.6489 27.3995 23.6723 27.4322 23.6963 27.4639ZM23.4121 26.332C23.3962 26.3323 23.3721 26.341 23.3564 26.3584H23.3574C23.3733 26.341 23.3973 26.332 23.4131 26.332H23.4121ZM27.3252 25.5723L27.2598 25.4609C27.254 25.4519 27.2472 25.4435 27.2412 25.4346C27.2707 25.479 27.2991 25.5247 27.3252 25.5723ZM21.417 21.2344C21.7482 21.2346 22.0166 21.5027 22.0166 21.834C22.0163 22.165 21.7481 22.4334 21.417 22.4336H20.3496V23.501C20.3492 23.832 20.0811 24.1006 19.75 24.1006C19.419 24.1005 19.1508 23.8319 19.1504 23.501V21.834C19.1504 21.5027 19.4187 21.2345 19.75 21.2344H21.417ZM24.3545 21.9609C24.3392 21.9696 24.3245 21.9792 24.3096 21.9883C24.3591 21.9584 24.4102 21.9306 24.4629 21.9053L24.4619 21.9043C24.4253 21.9219 24.3896 21.9411 24.3545 21.9609Z" fill="#4C4C4C"/>
</svg>
