<svg width="52" height="52" viewBox="0 0 52 52" fill="none" xmlns="http://www.w3.org/2000/svg">
<rect x="0.5" y="0.5" width="51" height="51" rx="14.5" stroke="#E7E7E7"/>
<path fill-rule="evenodd" clip-rule="evenodd" d="M28.0361 13.999C29.3616 13.999 30.4365 15.0739 30.4365 16.3994V18.8105H33.6582C34.3587 18.8106 35.0245 19.1176 35.4805 19.6494L39.4824 24.3174C39.8552 24.7523 40.0595 25.3071 40.0596 25.8799V31.042C40.0596 32.3674 38.9855 33.4422 37.6602 33.4424H37.4531C37.0447 35.2236 35.451 36.5527 33.5459 36.5527C31.6408 36.5527 30.0471 35.2236 29.6387 33.4424H23.0176C22.6091 35.2236 21.0155 36.5527 19.1104 36.5527C17.1761 36.5526 15.5622 35.1827 15.1846 33.3604C14.157 33.0889 13.3985 32.1558 13.3984 31.043V16.3994C13.3984 15.0739 14.4733 13.999 15.7988 13.999H28.0361ZM19.1104 30.333C17.8901 30.3332 16.9004 31.3227 16.9004 32.543C16.9006 33.7632 17.8901 34.7527 19.1104 34.7529C20.3307 34.7529 21.3201 33.7633 21.3203 32.543C21.3203 31.3225 20.3308 30.333 19.1104 30.333ZM33.5459 30.333C32.3255 30.3331 31.336 31.3226 31.3359 32.543C31.3361 33.7633 32.3256 34.7529 33.5459 34.7529C34.7663 34.7529 35.7557 33.7633 35.7559 32.543C35.7558 31.3225 34.7663 30.333 33.5459 30.333ZM15.7988 15.7998C15.4675 15.7998 15.1992 16.068 15.1992 16.3994V31.043C15.1993 31.1532 15.2314 31.255 15.2832 31.3438C15.7929 29.715 17.3136 28.5333 19.1104 28.5332C21.0153 28.5332 22.6089 29.8616 23.0176 31.6426H28.6367V19.7295C28.6366 19.7234 28.6357 19.717 28.6357 19.7109C28.6357 19.7047 28.6366 19.6986 28.6367 19.6924V16.3994C28.6367 16.068 28.3675 15.7998 28.0361 15.7998H15.7988ZM30.4365 30.0117C31.1718 29.1095 32.2913 28.5332 33.5459 28.5332C35.4509 28.5332 37.0445 29.8616 37.4531 31.6426H37.6602C37.9914 31.6424 38.2598 31.3732 38.2598 31.042V25.8799C38.2597 25.7368 38.2084 25.5979 38.1152 25.4893L34.1133 20.8203C33.9993 20.6876 33.8331 20.6114 33.6582 20.6113H30.4365V30.0117Z" fill="#4C4C4C"/>
</svg>
